<svg width="90" height="107" viewBox="0 0 90 107" fill="none" xmlns="http://www.w3.org/2000/svg">
<path d="M21.0427 39.9291C19.3656 39.9291 18.0315 39.5804 17.0405 38.8828C16.0876 38.1485 15.5159 37.0838 15.3253 35.6886L14.8679 35.5234C13.6482 36.735 12.4666 37.7446 11.3231 38.5523C10.1796 39.3234 9.26482 39.7089 8.57872 39.7089C6.32987 39.7089 4.46218 38.9562 2.97565 37.4509C1.48911 35.9089 0.74585 33.9997 0.74585 31.7234C0.74585 30.5852 1.05078 29.6123 1.66064 28.8046C2.2705 27.9601 3.07094 27.4094 4.06196 27.1524L15.0966 24.6742L15.1538 23.3524C15.1538 21.7737 14.7154 20.5437 13.8388 19.6626C12.9621 18.7814 11.7614 18.3409 10.2368 18.3409C9.20764 18.3409 8.08321 18.5979 6.8635 19.1119C5.6819 19.5892 4.57653 20.195 3.54739 20.9292L3.03282 20.709L2.06086 17.4046C3.96667 16.3766 5.96777 15.422 8.06416 14.5409C10.1605 13.6597 11.6471 13.2191 12.5238 13.2191C15.6874 13.2191 18.0506 13.9167 19.6134 15.3119C21.2142 16.6703 22.0147 18.4694 22.0147 20.709C22.0147 21.5167 21.8432 23.1688 21.5001 25.6655C21.0808 29.2268 20.8712 31.3562 20.8712 32.0538C20.8712 32.7514 21.0618 33.3021 21.4429 33.706C21.8241 34.1099 22.3196 34.3118 22.9295 34.3118C23.3869 34.3118 23.8633 34.22 24.3588 34.0364C24.8925 33.8161 25.3308 33.5958 25.6738 33.3756L26.5314 34.5321C25.8454 35.707 24.9877 36.8451 23.9586 37.9466C22.9676 39.0113 21.9956 39.6721 21.0427 39.9291ZM10.6942 34.477C11.2659 34.477 11.9329 34.3301 12.6953 34.0364C13.4957 33.7427 14.2009 33.3572 14.8107 32.8799L14.9822 27.6481L8.8646 29.3002C7.94981 29.5205 7.49241 30.1263 7.49241 31.1176C7.49241 32.0722 7.77829 32.8799 8.35003 33.5408C8.95989 34.1649 9.74127 34.477 10.6942 34.477Z" fill="#E66453"/>
<path d="M28.8412 36.4045C29.9466 36.221 30.747 35.8722 31.2425 35.3582C31.7761 34.8074 32.043 34.0181 32.043 32.9901V21.0945C32.043 19.9196 31.8714 19.1119 31.5284 18.6713C31.1853 18.2307 30.5564 18.0104 29.6416 18.0104C29.3748 18.0104 29.108 18.0288 28.8412 18.0655C28.5744 18.1022 28.4029 18.1389 28.3266 18.1756L28.6697 15.0365C30.8042 14.7428 32.9768 14.4124 35.1875 14.0452C37.3983 13.6414 38.8276 13.366 39.4756 13.2191L39.9902 14.1003C39.5709 14.908 39.2279 17.1293 38.961 20.764C38.7323 24.3621 38.618 28.6026 38.618 33.4857C38.618 34.3669 38.7514 34.991 39.0182 35.3582C39.285 35.7253 39.7424 35.9089 40.3904 35.9089C40.7334 35.9089 41.0574 35.8905 41.3624 35.8538C41.7054 35.8171 41.9341 35.7987 42.0485 35.7987L42.22 36.0741L41.6482 39.4335C41.229 39.3968 40.3904 39.3601 39.1326 39.3234C37.9128 39.2866 36.655 39.2683 35.3591 39.2683C34.1775 39.2683 32.8243 39.3417 31.2997 39.4886C29.8132 39.6721 28.8412 39.8006 28.3838 39.8741L28.8412 36.4045ZM34.8445 8.48294C33.5867 8.48294 32.6147 8.13415 31.9286 7.43656C31.2425 6.73898 30.8995 5.80276 30.8995 4.62788C30.8995 3.30615 31.2997 2.24142 32.1001 1.4337C32.9387 0.62597 34.0441 0.222107 35.4162 0.222107C36.636 0.222107 37.5889 0.589255 38.275 1.32355C38.961 2.02113 39.3041 2.95736 39.3041 4.13223C39.3041 5.41725 38.8848 6.46362 38.0463 7.27135C37.2458 8.07907 36.1786 8.48294 34.8445 8.48294Z" fill="#E66453"/>
<path d="M8.92177 72.9725C7.54959 72.9725 6.29175 72.8623 5.14827 72.642C4.0429 72.4217 3.16623 72.2014 2.51825 71.9812C1.87028 71.7242 1.47006 71.5589 1.31759 71.4855L0.974547 70.9348C1.12701 69.9435 1.26042 68.787 1.37477 67.4652C1.52723 66.1435 1.64158 64.8768 1.71781 63.6653L4.8624 63.3899C4.90051 67.0981 6.59668 68.9522 9.95091 68.9522C11.0563 68.9522 11.9711 68.7319 12.6953 68.2913C13.4195 67.814 13.7816 67.2266 13.7816 66.529C13.7816 65.7947 13.4004 65.1338 12.6381 64.5464C11.8758 63.9223 10.3511 63.0778 8.06416 62.0131C5.77718 60.9851 4.11913 59.902 3.08999 58.7638C2.06086 57.589 1.54629 56.2305 1.54629 54.6885C1.54629 53.0363 2.0418 51.5861 3.03282 50.3378C4.02384 49.0528 5.41508 48.0615 7.20654 47.3639C8.998 46.6296 11.0372 46.2625 13.3242 46.2625C14.4296 46.2625 15.4587 46.3359 16.4116 46.4827C17.3645 46.6296 18.1078 46.7948 18.6414 46.9784C19.2131 47.1252 19.5752 47.217 19.7277 47.2537L20.0136 47.8045C19.9373 48.2083 19.7658 49.1262 19.499 50.5581C19.2703 51.9532 19.0797 53.4035 18.9273 54.9088L15.7255 55.1291L15.7827 54.1378C15.7827 52.8528 15.4587 51.9165 14.8107 51.3291C14.1627 50.7049 13.1527 50.3929 11.7805 50.3929C10.7895 50.3929 9.95091 50.6315 9.26482 51.1088C8.57872 51.5494 8.23568 52.1185 8.23568 52.816C8.23568 53.5136 8.54061 54.1561 9.15047 54.7436C9.76033 55.331 10.7704 55.9552 12.1807 56.616C14.4296 57.644 16.1448 58.5619 17.3264 59.3696C18.5461 60.1773 19.3847 61.0034 19.8421 61.8479C20.3376 62.6556 20.5853 63.6285 20.5853 64.7667C20.5853 66.272 20.0708 67.6488 19.0416 68.8971C18.0125 70.1454 16.6022 71.1367 14.8107 71.871C13.0193 72.6053 11.0563 72.9725 8.92177 72.9725Z" fill="#E66453"/>
<path d="M26.8289 53.7523C26.8289 52.7977 26.6765 52.1185 26.3715 51.7146C26.0666 51.274 25.5711 51.0537 24.885 51.0537C24.542 51.0537 24.237 51.0721 23.9702 51.1088C23.7034 51.1455 23.5319 51.1822 23.4556 51.2189L23.7987 48.0248C25.7807 47.7678 27.839 47.4557 29.9735 47.0885C32.108 46.6847 33.4993 46.4093 34.1472 46.2625L34.6618 47.1436C34.2425 48.0615 33.8804 50.0808 33.5755 53.2015C33.2706 56.2856 33.1181 59.4798 33.1181 62.7841C33.1181 64.2894 33.404 65.4092 33.9757 66.1435C34.5856 66.8778 35.5004 67.2449 36.7201 67.2449C37.4824 67.2449 38.2257 67.0797 38.9499 66.7493C39.7122 66.3821 40.627 65.8498 41.6942 65.1522V53.8073C41.6942 52.7793 41.5227 52.0817 41.1797 51.7146C40.8747 51.3474 40.2268 51.1455 39.2357 51.1088L38.2066 51.1639L38.664 48.0248C40.7223 47.7678 42.8377 47.4557 45.0103 47.0885C47.2211 46.7214 48.6504 46.4827 49.2984 46.3726L49.813 47.2537C49.3937 48.0982 49.0316 50.246 48.7267 53.6972C48.4217 57.1484 48.2693 60.9484 48.2693 65.0971C48.2693 65.7947 48.4599 66.3454 48.841 66.7493C49.2222 67.1532 49.7177 67.3551 50.3276 67.3551C50.7468 67.3551 51.1471 67.2817 51.5282 67.1348C51.9475 66.9879 52.2905 66.8411 52.5573 66.6942C52.8242 66.5474 52.9957 66.4556 53.0719 66.4189L53.9295 67.5203C53.7771 67.7773 53.3959 68.3097 52.7861 69.1174C52.1762 69.8884 51.4329 70.6778 50.5562 71.4855C49.6796 72.2932 48.841 72.7889 48.0406 72.9725C44.572 72.9725 42.6281 71.5589 42.2088 68.7319L41.7514 68.5116C40.303 69.7966 38.9689 70.8614 37.7492 71.7058C36.5676 72.5135 35.7672 72.9174 35.3479 72.9174C32.4511 72.9174 30.2403 72.3299 28.7157 71.1551C27.191 69.9802 26.4287 68.273 26.4287 66.0334L26.8289 53.7523Z" fill="#E66453"/>
<path d="M71.9908 69.3377C72.9437 69.1541 73.6107 68.8237 73.9919 68.3464C74.4112 67.8691 74.6399 67.1715 74.678 66.2536L74.8495 56.7262C74.8495 55.1107 74.5446 53.9175 73.9347 53.1465C73.3249 52.3387 72.391 51.9349 71.1332 51.9349C69.6848 51.9349 68.0077 52.6325 66.1018 54.0276C65.7207 60.6363 65.5301 64.7667 65.5301 66.4189C65.5301 67.3367 65.6444 67.9792 65.8731 68.3464C66.14 68.7135 66.5974 68.8971 67.2453 68.8971L68.789 68.842L68.9034 69.0623L68.3316 72.4768C67.9124 72.4401 67.1119 72.4034 65.9303 72.3667C64.7868 72.3299 63.5862 72.3116 62.3283 72.3116C61.1086 72.3116 59.7746 72.3483 58.3261 72.4217C56.9158 72.5319 56.0011 72.6053 55.5818 72.642L56.0392 69.2275C57.1445 69.1174 57.9069 68.842 58.3261 68.4015C58.7835 67.9242 59.0122 67.1715 59.0122 66.1435V54.4682C59.0122 53.1832 58.8026 52.3204 58.3833 51.8798C58.0022 51.4025 57.278 51.1639 56.2107 51.1639H55.4674L55.2387 50.8885L55.5246 48.0248C57.6972 47.731 59.8317 47.3823 61.9281 46.9784C64.0626 46.5745 65.4348 46.3175 66.0447 46.2074L66.5021 46.7581C66.4258 46.9784 66.3115 47.474 66.159 48.245C66.0066 49.0161 65.9113 49.7871 65.8731 50.5581L66.1018 50.7784C67.2834 49.7871 68.6366 48.7958 70.1612 47.8045C71.724 46.7765 72.8484 46.2625 73.5345 46.2625C76.2407 46.2625 78.3371 46.8866 79.8237 48.1349C81.3483 49.3832 82.1106 51.1272 82.1106 53.3668C82.1106 53.9175 81.9582 55.845 81.6532 59.1493C81.2721 62.8942 81.0815 65.2991 81.0815 66.3638C81.0815 67.3184 81.2149 67.9976 81.4817 68.4015C81.7867 68.8053 82.244 69.0073 82.8539 69.0073C83.2351 69.0073 83.5972 68.9889 83.9402 68.9522C84.2833 68.9155 84.512 68.8971 84.6263 68.8971L84.7407 69.1174L84.2261 72.4768C83.7687 72.4401 82.9301 72.4034 81.7104 72.3667C80.5288 72.3299 79.3091 72.3116 78.0513 72.3116C77.1365 72.3116 75.9549 72.3667 74.5065 72.4768C73.0962 72.6237 72.1623 72.7154 71.7049 72.7522L71.9908 69.3377Z" fill="#E66453"/>
<path d="M8.92177 106.016C7.54959 106.016 6.29175 105.906 5.14827 105.685C4.0429 105.465 3.16623 105.245 2.51825 105.024C1.87028 104.767 1.47006 104.602 1.31759 104.529L0.974547 103.978C1.12701 102.987 1.26042 101.83 1.37477 100.509C1.52723 99.1868 1.64158 97.9201 1.71781 96.7086L4.8624 96.4332C4.90051 100.141 6.59668 101.995 9.95091 101.995C11.0563 101.995 11.9711 101.775 12.6953 101.335C13.4195 100.857 13.7816 100.27 13.7816 99.5723C13.7816 98.838 13.4004 98.1772 12.6381 97.5897C11.8758 96.9656 10.3511 96.1211 8.06416 95.0564C5.77718 94.0284 4.11913 92.9453 3.08999 91.8071C2.06086 90.6323 1.54629 89.2738 1.54629 87.7318C1.54629 86.0796 2.0418 84.6294 3.03282 83.3811C4.02384 82.0961 5.41508 81.1048 7.20654 80.4072C8.998 79.6729 11.0372 79.3057 13.3242 79.3057C14.4296 79.3057 15.4587 79.3792 16.4116 79.526C17.3645 79.6729 18.1078 79.8381 18.6414 80.0217C19.2131 80.1685 19.5752 80.2603 19.7277 80.2971L20.0136 80.8478C19.9373 81.2516 19.7658 82.1695 19.499 83.6014C19.2703 84.9965 19.0797 86.4468 18.9273 87.9521L15.7255 88.1724L15.7827 87.1811C15.7827 85.896 15.4587 84.9598 14.8107 84.3724C14.1627 83.7482 13.1527 83.4362 11.7805 83.4362C10.7895 83.4362 9.95091 83.6748 9.26482 84.1521C8.57872 84.5927 8.23568 85.1618 8.23568 85.8593C8.23568 86.5569 8.54061 87.1994 9.15047 87.7869C9.76033 88.3743 10.7704 88.9985 12.1807 89.6593C14.4296 90.6873 16.1448 91.6052 17.3264 92.4129C18.5461 93.2207 19.3847 94.0467 19.8421 94.8912C20.3376 95.6989 20.5853 96.6718 20.5853 97.81C20.5853 99.3153 20.0708 100.692 19.0416 101.94C18.0125 103.189 16.6022 104.18 14.8107 104.914C13.0193 105.649 11.0563 106.016 8.92177 106.016Z" fill="#E66453"/>
<path d="M36.9488 106.016C32.9466 106.016 29.7829 104.896 27.4578 102.656C25.1709 100.38 24.0274 97.2776 24.0274 93.3492C24.0274 90.7057 24.6182 88.3192 25.7998 86.1898C26.9814 84.0603 28.6013 82.3898 30.6596 81.1782C32.7179 79.9299 35.0049 79.3057 37.5205 79.3057C43.924 79.3057 47.1258 82.4265 47.1258 88.668C47.1258 89.7695 46.9924 90.7975 46.7256 91.7521L46.0395 92.4129H31.2313C31.2695 95.0931 31.9174 97.1491 33.1753 98.581C34.4712 99.9762 36.2627 100.674 38.5497 100.674C40.5317 100.674 42.7996 100.123 45.3534 99.0216L45.7536 99.2419L46.6684 101.94C45.2581 102.968 43.6191 103.905 41.7514 104.749C39.9218 105.594 38.321 106.016 36.9488 106.016ZM39.0642 88.9434C39.5216 88.9067 39.8075 88.8149 39.9218 88.668C40.0743 88.5212 40.1505 88.1907 40.1505 87.6767C40.1505 84.9598 38.9499 83.6014 36.5486 83.6014C35.062 83.6014 33.8423 84.097 32.8894 85.0883C31.9746 86.0796 31.4219 87.5115 31.2313 89.384L39.0642 88.9434Z" fill="#E66453"/>
<path d="M60.7284 106.016C58.0221 106.016 56.0401 105.483 54.7822 104.419C53.5244 103.317 52.8955 101.592 52.8955 99.2419V86.9608C52.8955 85.7859 52.6858 85.0149 52.2666 84.6478C51.8473 84.2439 51.0278 84.0236 49.8081 83.9869L49.2363 83.6014L49.6365 80.9028C51.085 80.242 52.5143 79.4893 53.9246 78.6449C55.3349 77.7637 56.4975 76.9927 57.4122 76.3319C58.3651 75.671 58.956 75.2488 59.1847 75.0652L60.7855 75.8362C60.7474 76.0565 60.6521 76.5889 60.4997 77.4333C60.3853 78.2777 60.271 79.3241 60.1566 80.5724L66.9032 80.4072L67.1319 80.6826L66.5601 84.3724L59.8136 84.2072C59.5849 87.4014 59.4705 91.4033 59.4705 96.2129C59.4705 97.7916 59.7564 98.9298 60.3281 99.6274C60.8999 100.325 61.8337 100.674 63.1297 100.674C63.8158 100.674 64.5019 100.564 65.188 100.343C65.9122 100.123 66.3696 99.9762 66.5601 99.9027L67.3034 101.665C67.0747 101.885 66.522 102.344 65.6453 103.042C64.8068 103.739 63.892 104.419 62.901 105.08C61.9481 105.704 61.2239 106.016 60.7284 106.016Z" fill="#E66453"/>
<path d="M77.6537 106.016C76.2815 106.016 75.0237 105.906 73.8802 105.685C72.7749 105.465 71.8982 105.245 71.2502 105.024C70.6022 104.767 70.202 104.602 70.0495 104.529L69.7065 103.978C69.859 102.987 69.9924 101.83 70.1067 100.509C70.2592 99.1868 70.3735 97.9201 70.4498 96.7086L73.5944 96.4332C73.6325 100.141 75.3286 101.995 78.6829 101.995C79.7882 101.995 80.703 101.775 81.4272 101.335C82.1514 100.857 82.5135 100.27 82.5135 99.5723C82.5135 98.838 82.1324 98.1772 81.3701 97.5897C80.6077 96.9656 79.0831 96.1211 76.7961 95.0564C74.5091 94.0284 72.8511 92.9453 71.822 91.8071C70.7928 90.6323 70.2782 89.2738 70.2782 87.7318C70.2782 86.0796 70.7738 84.6294 71.7648 83.3811C72.7558 82.0961 74.147 81.1048 75.9385 80.4072C77.73 79.6729 79.7692 79.3057 82.0561 79.3057C83.1615 79.3057 84.1907 79.3792 85.1436 79.526C86.0965 79.6729 86.8397 79.8381 87.3733 80.0217C87.9451 80.1685 88.3072 80.2603 88.4597 80.2971L88.7455 80.8478C88.6693 81.2516 88.4978 82.1695 88.231 83.6014C88.0023 84.9965 87.8117 86.4468 87.6592 87.9521L84.4575 88.1724L84.5146 87.1811C84.5146 85.896 84.1907 84.9598 83.5427 84.3724C82.8947 83.7482 81.8846 83.4362 80.5124 83.4362C79.5214 83.4362 78.6829 83.6748 77.9968 84.1521C77.3107 84.5927 76.9676 85.1618 76.9676 85.8593C76.9676 86.5569 77.2726 87.1994 77.8824 87.7869C78.4923 88.3743 79.5024 88.9985 80.9127 89.6593C83.1615 90.6873 84.8767 91.6052 86.0583 92.4129C87.2781 93.2207 88.1166 94.0467 88.574 94.8912C89.0695 95.6989 89.3173 96.6718 89.3173 97.81C89.3173 99.3153 88.8027 100.692 87.7736 101.94C86.7444 103.189 85.3341 104.18 83.5427 104.914C81.7512 105.649 79.7882 106.016 77.6537 106.016Z" fill="#E66453"/>
</svg>
