<svg width="90" height="107" viewBox="0 0 90 107" fill="none" xmlns="http://www.w3.org/2000/svg">
<path d="M21.043 39.9291C19.3658 39.9291 18.0318 39.5804 17.0408 38.8828C16.0879 38.1485 15.5161 37.0838 15.3255 35.6886L14.8681 35.5234C13.6484 36.735 12.4668 37.7446 11.3233 38.5523C10.1798 39.3234 9.26506 39.7089 8.57897 39.7089C6.33011 39.7089 4.46242 38.9562 2.97589 37.4509C1.48936 35.9089 0.746094 33.9997 0.746094 31.7234C0.746094 30.5852 1.05102 29.6123 1.66088 28.8046C2.27074 27.9601 3.07118 27.4094 4.0622 27.1524L15.0968 24.6742L15.154 23.3524C15.154 21.7737 14.7157 20.5437 13.839 19.6626C12.9623 18.7814 11.7617 18.3409 10.237 18.3409C9.20789 18.3409 8.08346 18.5979 6.86374 19.1119C5.68214 19.5892 4.57677 20.195 3.54763 20.9292L3.03306 20.709L2.0611 17.4046C3.96691 16.3766 5.96801 15.422 8.0644 14.5409C10.1608 13.6597 11.6473 13.2191 12.524 13.2191C15.6876 13.2191 18.0508 13.9167 19.6136 15.3119C21.2145 16.6703 22.0149 18.4694 22.0149 20.709C22.0149 21.5167 21.8434 23.1688 21.5004 25.6655C21.0811 29.2268 20.8714 31.3562 20.8714 32.0538C20.8714 32.7514 21.062 33.3021 21.4432 33.706C21.8243 34.1099 22.3199 34.3118 22.9297 34.3118C23.3871 34.3118 23.8636 34.22 24.3591 34.0364C24.8927 33.8161 25.331 33.5958 25.6741 33.3756L26.5317 34.5321C25.8456 35.707 24.988 36.8451 23.9588 37.9466C22.9678 39.0113 21.9959 39.6721 21.043 39.9291ZM10.6944 34.477C11.2662 34.477 11.9332 34.3301 12.6955 34.0364C13.496 33.7427 14.2011 33.3572 14.811 32.8799L14.9825 27.6481L8.86484 29.3002C7.95005 29.5205 7.49266 30.1263 7.49266 31.1176C7.49266 32.0722 7.77853 32.8799 8.35027 33.5408C8.96013 34.1649 9.74151 34.477 10.6944 34.477Z" fill="#F4EFDF"/>
<path d="M28.8414 36.4045C29.9468 36.221 30.7472 35.8722 31.2428 35.3582C31.7764 34.8074 32.0432 34.0181 32.0432 32.9901V21.0945C32.0432 19.9196 31.8717 19.1119 31.5286 18.6713C31.1856 18.2307 30.5567 18.0104 29.6419 18.0104C29.3751 18.0104 29.1083 18.0288 28.8414 18.0655C28.5746 18.1022 28.4031 18.1389 28.3269 18.1756L28.6699 15.0365C30.8044 14.7428 32.977 14.4124 35.1878 14.0452C37.3985 13.6414 38.8279 13.366 39.4759 13.2191L39.9904 14.1003C39.5711 14.908 39.2281 17.1293 38.9613 20.764C38.7326 24.3621 38.6182 28.6026 38.6182 33.4857C38.6182 34.3669 38.7516 34.991 39.0185 35.3582C39.2853 35.7253 39.7427 35.9089 40.3906 35.9089C40.7337 35.9089 41.0577 35.8905 41.3626 35.8538C41.7057 35.8171 41.9343 35.7987 42.0487 35.7987L42.2202 36.0741L41.6485 39.4335C41.2292 39.3968 40.3906 39.3601 39.1328 39.3234C37.9131 39.2866 36.6553 39.2683 35.3593 39.2683C34.1777 39.2683 32.8246 39.3417 31.2999 39.4886C29.8134 39.6721 28.8414 39.8006 28.384 39.8741L28.8414 36.4045ZM34.8447 8.48294C33.5869 8.48294 32.6149 8.13415 31.9289 7.43656C31.2428 6.73898 30.8997 5.80276 30.8997 4.62788C30.8997 3.30615 31.2999 2.24142 32.1004 1.4337C32.9389 0.62597 34.0443 0.222107 35.4165 0.222107C36.6362 0.222107 37.5891 0.589255 38.2752 1.32355C38.9613 2.02113 39.3043 2.95736 39.3043 4.13223C39.3043 5.41725 38.8851 6.46362 38.0465 7.27135C37.2461 8.07907 36.1788 8.48294 34.8447 8.48294Z" fill="#F4EFDF"/>
<path d="M8.92201 72.9725C7.54983 72.9725 6.292 72.8623 5.14851 72.642C4.04314 72.4217 3.16647 72.2014 2.5185 71.9812C1.87052 71.7242 1.4703 71.5589 1.31784 71.4855L0.974791 70.9348C1.12726 69.9435 1.26066 68.787 1.37501 67.4652C1.52748 66.1435 1.64182 64.8768 1.71806 63.6653L4.86264 63.3899C4.90076 67.0981 6.59693 68.9522 9.95115 68.9522C11.0565 68.9522 11.9713 68.7319 12.6955 68.2913C13.4197 67.814 13.7818 67.2266 13.7818 66.529C13.7818 65.7947 13.4007 65.1338 12.6383 64.5464C11.876 63.9223 10.3514 63.0778 8.0644 62.0131C5.77743 60.9851 4.11938 59.902 3.09024 58.7638C2.0611 57.589 1.54653 56.2305 1.54653 54.6885C1.54653 53.0363 2.04204 51.5861 3.03306 50.3378C4.02409 49.0528 5.41533 48.0615 7.20679 47.3639C8.99825 46.6296 11.0375 46.2625 13.3244 46.2625C14.4298 46.2625 15.4589 46.3359 16.4118 46.4827C17.3647 46.6296 18.108 46.7948 18.6416 46.9784C19.2134 47.1252 19.5755 47.217 19.728 47.2537L20.0138 47.8045C19.9376 48.2083 19.7661 49.1262 19.4993 50.5581C19.2706 51.9532 19.08 53.4035 18.9275 54.9088L15.7258 55.1291L15.7829 54.1378C15.7829 52.8528 15.4589 51.9165 14.811 51.3291C14.163 50.7049 13.1529 50.3929 11.7807 50.3929C10.7897 50.3929 9.95115 50.6315 9.26506 51.1088C8.57897 51.5494 8.23592 52.1185 8.23592 52.816C8.23592 53.5136 8.54085 54.1561 9.15071 54.7436C9.76057 55.331 10.7706 55.9552 12.1809 56.616C14.4298 57.644 16.145 58.5619 17.3266 59.3696C18.5464 60.1773 19.3849 61.0034 19.8423 61.8479C20.3378 62.6556 20.5856 63.6285 20.5856 64.7667C20.5856 66.272 20.071 67.6488 19.0419 68.8971C18.0127 70.1454 16.6024 71.1367 14.811 71.871C13.0195 72.6053 11.0565 72.9725 8.92201 72.9725Z" fill="#F4EFDF"/>
<path d="M26.8292 53.7523C26.8292 52.7977 26.6767 52.1185 26.3718 51.7146C26.0669 51.274 25.5713 51.0537 24.8852 51.0537C24.5422 51.0537 24.2373 51.0721 23.9705 51.1088C23.7036 51.1455 23.5321 51.1822 23.4559 51.2189L23.7989 48.0248C25.781 47.7678 27.8393 47.4557 29.9738 47.0885C32.1083 46.6847 33.4995 46.4093 34.1475 46.2625L34.662 47.1436C34.2428 48.0615 33.8807 50.0808 33.5757 53.2015C33.2708 56.2856 33.1183 59.4798 33.1183 62.7841C33.1183 64.2894 33.4042 65.4092 33.976 66.1435C34.5858 66.8778 35.5006 67.2449 36.7203 67.2449C37.4826 67.2449 38.2259 67.0797 38.9501 66.7493C39.7124 66.3821 40.6272 65.8498 41.6945 65.1522V53.8073C41.6945 52.7793 41.523 52.0817 41.1799 51.7146C40.875 51.3474 40.227 51.1455 39.236 51.1088L38.2069 51.1639L38.6642 48.0248C40.7225 47.7678 42.838 47.4557 45.0106 47.0885C47.2213 46.7214 48.6507 46.4827 49.2987 46.3726L49.8132 47.2537C49.394 48.0982 49.0318 50.246 48.7269 53.6972C48.422 57.1484 48.2695 60.9484 48.2695 65.0971C48.2695 65.7947 48.4601 66.3454 48.8413 66.7493C49.2224 67.1532 49.7179 67.3551 50.3278 67.3551C50.7471 67.3551 51.1473 67.2817 51.5285 67.1348C51.9477 66.9879 52.2908 66.8411 52.5576 66.6942C52.8244 66.5474 52.9959 66.4556 53.0722 66.4189L53.9298 67.5203C53.7773 67.7773 53.3962 68.3097 52.7863 69.1174C52.1764 69.8884 51.4332 70.6778 50.5565 71.4855C49.6798 72.2932 48.8413 72.7889 48.0408 72.9725C44.5723 72.9725 42.6283 71.5589 42.2091 68.7319L41.7517 68.5116C40.3032 69.7966 38.9692 70.8614 37.7495 71.7058C36.5679 72.5135 35.7674 72.9174 35.3481 72.9174C32.4513 72.9174 30.2406 72.3299 28.7159 71.1551C27.1913 69.9802 26.429 68.273 26.429 66.0334L26.8292 53.7523Z" fill="#F4EFDF"/>
<path d="M71.991 69.3377C72.9439 69.1541 73.611 68.8237 73.9921 68.3464C74.4114 67.8691 74.6401 67.1715 74.6782 66.2536L74.8498 56.7262C74.8498 55.1107 74.5448 53.9175 73.935 53.1465C73.3251 52.3387 72.3913 51.9349 71.1334 51.9349C69.685 51.9349 68.0079 52.6325 66.1021 54.0276C65.7209 60.6363 65.5303 64.7667 65.5303 66.4189C65.5303 67.3367 65.6447 67.9792 65.8734 68.3464C66.1402 68.7135 66.5976 68.8971 67.2456 68.8971L68.7893 68.842L68.9036 69.0623L68.3319 72.4768C67.9126 72.4401 67.1122 72.4034 65.9306 72.3667C64.7871 72.3299 63.5864 72.3116 62.3286 72.3116C61.1089 72.3116 59.7748 72.3483 58.3264 72.4217C56.9161 72.5319 56.0013 72.6053 55.582 72.642L56.0394 69.2275C57.1448 69.1174 57.9071 68.842 58.3264 68.4015C58.7838 67.9242 59.0125 67.1715 59.0125 66.1435V54.4682C59.0125 53.1832 58.8028 52.3204 58.3836 51.8798C58.0024 51.4025 57.2782 51.1639 56.2109 51.1639H55.4677L55.239 50.8885L55.5249 48.0248C57.6975 47.731 59.832 47.3823 61.9284 46.9784C64.0629 46.5745 65.4351 46.3175 66.0449 46.2074L66.5023 46.7581C66.4261 46.9784 66.3117 47.474 66.1593 48.245C66.0068 49.0161 65.9115 49.7871 65.8734 50.5581L66.1021 50.7784C67.2837 49.7871 68.6368 48.7958 70.1615 47.8045C71.7242 46.7765 72.8486 46.2625 73.5347 46.2625C76.241 46.2625 78.3374 46.8866 79.8239 48.1349C81.3486 49.3832 82.1109 51.1272 82.1109 53.3668C82.1109 53.9175 81.9584 55.845 81.6535 59.1493C81.2723 62.8942 81.0817 65.2991 81.0817 66.3638C81.0817 67.3184 81.2152 67.9976 81.482 68.4015C81.7869 68.8053 82.2443 69.0073 82.8541 69.0073C83.2353 69.0073 83.5974 68.9889 83.9405 68.9522C84.2835 68.9155 84.5122 68.8971 84.6266 68.8971L84.7409 69.1174L84.2263 72.4768C83.7689 72.4401 82.9304 72.4034 81.7107 72.3667C80.5291 72.3299 79.3093 72.3116 78.0515 72.3116C77.1367 72.3116 75.9551 72.3667 74.5067 72.4768C73.0964 72.6237 72.1626 72.7154 71.7052 72.7522L71.991 69.3377Z" fill="#F4EFDF"/>
<path d="M8.92201 106.016C7.54983 106.016 6.292 105.906 5.14851 105.685C4.04314 105.465 3.16647 105.245 2.5185 105.024C1.87052 104.767 1.4703 104.602 1.31784 104.529L0.974791 103.978C1.12726 102.987 1.26066 101.83 1.37501 100.509C1.52748 99.1868 1.64182 97.9201 1.71806 96.7086L4.86264 96.4332C4.90076 100.141 6.59693 101.995 9.95115 101.995C11.0565 101.995 11.9713 101.775 12.6955 101.335C13.4197 100.857 13.7818 100.27 13.7818 99.5723C13.7818 98.838 13.4007 98.1772 12.6383 97.5897C11.876 96.9656 10.3514 96.1211 8.0644 95.0564C5.77743 94.0284 4.11938 92.9453 3.09024 91.8071C2.0611 90.6323 1.54653 89.2738 1.54653 87.7318C1.54653 86.0796 2.04204 84.6294 3.03306 83.3811C4.02409 82.0961 5.41533 81.1048 7.20679 80.4072C8.99825 79.6729 11.0375 79.3057 13.3244 79.3057C14.4298 79.3057 15.4589 79.3792 16.4118 79.526C17.3647 79.6729 18.108 79.8381 18.6416 80.0217C19.2134 80.1685 19.5755 80.2603 19.728 80.2971L20.0138 80.8478C19.9376 81.2516 19.7661 82.1695 19.4993 83.6014C19.2706 84.9965 19.08 86.4468 18.9275 87.9521L15.7258 88.1724L15.7829 87.1811C15.7829 85.896 15.4589 84.9598 14.811 84.3724C14.163 83.7482 13.1529 83.4362 11.7807 83.4362C10.7897 83.4362 9.95115 83.6748 9.26506 84.1521C8.57897 84.5927 8.23592 85.1618 8.23592 85.8593C8.23592 86.5569 8.54085 87.1994 9.15071 87.7869C9.76057 88.3743 10.7706 88.9985 12.1809 89.6593C14.4298 90.6873 16.145 91.6052 17.3266 92.4129C18.5464 93.2207 19.3849 94.0467 19.8423 94.8912C20.3378 95.6989 20.5856 96.6718 20.5856 97.81C20.5856 99.3153 20.071 100.692 19.0419 101.94C18.0127 103.189 16.6024 104.18 14.811 104.914C13.0195 105.649 11.0565 106.016 8.92201 106.016Z" fill="#F4EFDF"/>
<path d="M36.949 106.016C32.9468 106.016 29.7832 104.896 27.4581 102.656C25.1711 100.38 24.0276 97.2776 24.0276 93.3492C24.0276 90.7057 24.6184 88.3192 25.8 86.1898C26.9816 84.0603 28.6016 82.3898 30.6599 81.1782C32.7181 79.9299 35.0051 79.3057 37.5208 79.3057C43.9243 79.3057 47.126 82.4265 47.126 88.668C47.126 89.7695 46.9926 90.7975 46.7258 91.7521L46.0397 92.4129H31.2316C31.2697 95.0931 31.9177 97.1491 33.1755 98.581C34.4715 99.9762 36.2629 100.674 38.5499 100.674C40.5319 100.674 42.7999 100.123 45.3536 99.0216L45.7539 99.2419L46.6686 101.94C45.2583 102.968 43.6194 103.905 41.7517 104.749C39.9221 105.594 38.3212 106.016 36.949 106.016ZM39.0645 88.9434C39.5219 88.9067 39.8077 88.8149 39.9221 88.668C40.0745 88.5212 40.1508 88.1907 40.1508 87.6767C40.1508 84.9598 38.9501 83.6014 36.5488 83.6014C35.0623 83.6014 33.8426 84.097 32.8896 85.0883C31.9749 86.0796 31.4222 87.5115 31.2316 89.384L39.0645 88.9434Z" fill="#F4EFDF"/>
<path d="M60.7286 106.016C58.0224 106.016 56.0403 105.483 54.7825 104.419C53.5246 103.317 52.8957 101.592 52.8957 99.2419V86.9608C52.8957 85.7859 52.6861 85.0149 52.2668 84.6478C51.8475 84.2439 51.028 84.0236 49.8083 83.9869L49.2366 83.6014L49.6368 80.9028C51.0852 80.242 52.5146 79.4893 53.9249 78.6449C55.3352 77.7637 56.4977 76.9927 57.4125 76.3319C58.3654 75.671 58.9562 75.2488 59.1849 75.0652L60.7858 75.8362C60.7477 76.0565 60.6524 76.5889 60.4999 77.4333C60.3856 78.2777 60.2712 79.3241 60.1569 80.5724L66.9034 80.4072L67.1321 80.6826L66.5604 84.3724L59.8138 84.2072C59.5851 87.4014 59.4708 91.4033 59.4708 96.2129C59.4708 97.7916 59.7566 98.9298 60.3284 99.6274C60.9001 100.325 61.834 100.674 63.1299 100.674C63.816 100.674 64.5021 100.564 65.1882 100.343C65.9124 100.123 66.3698 99.9762 66.5604 99.9027L67.3036 101.665C67.0749 101.885 66.5223 102.344 65.6456 103.042C64.807 103.739 63.8922 104.419 62.9012 105.08C61.9483 105.704 61.2241 106.016 60.7286 106.016Z" fill="#F4EFDF"/>
<path d="M77.654 106.016C76.2818 106.016 75.024 105.906 73.8805 105.685C72.7751 105.465 71.8984 105.245 71.2505 105.024C70.6025 104.767 70.2023 104.602 70.0498 104.529L69.7067 103.978C69.8592 102.987 69.9926 101.83 70.107 100.509C70.2594 99.1868 70.3738 97.9201 70.45 96.7086L73.5946 96.4332C73.6327 100.141 75.3289 101.995 78.6831 101.995C79.7885 101.995 80.7033 101.775 81.4275 101.335C82.1517 100.857 82.5138 100.27 82.5138 99.5723C82.5138 98.838 82.1326 98.1772 81.3703 97.5897C80.608 96.9656 79.0833 96.1211 76.7964 95.0564C74.5094 94.0284 72.8513 92.9453 71.8222 91.8071C70.7931 90.6323 70.2785 89.2738 70.2785 87.7318C70.2785 86.0796 70.774 84.6294 71.765 83.3811C72.756 82.0961 74.1473 81.1048 75.9387 80.4072C77.7302 79.6729 79.7694 79.3057 82.0564 79.3057C83.1618 79.3057 84.1909 79.3792 85.1438 79.526C86.0967 79.6729 86.84 79.8381 87.3736 80.0217C87.9453 80.1685 88.3074 80.2603 88.4599 80.2971L88.7458 80.8478C88.6695 81.2516 88.498 82.1695 88.2312 83.6014C88.0025 84.9965 87.8119 86.4468 87.6595 87.9521L84.4577 88.1724L84.5149 87.1811C84.5149 85.896 84.1909 84.9598 83.5429 84.3724C82.8949 83.7482 81.8849 83.4362 80.5127 83.4362C79.5217 83.4362 78.6831 83.6748 77.997 84.1521C77.3109 84.5927 76.9679 85.1618 76.9679 85.8593C76.9679 86.5569 77.2728 87.1994 77.8827 87.7869C78.4925 88.3743 79.5026 88.9985 80.9129 89.6593C83.1618 90.6873 84.877 91.6052 86.0586 92.4129C87.2783 93.2207 88.1169 94.0467 88.5743 94.8912C89.0698 95.6989 89.3175 96.6718 89.3175 97.81C89.3175 99.3153 88.803 100.692 87.7738 101.94C86.7447 103.189 85.3344 104.18 83.5429 104.914C81.7515 105.649 79.7885 106.016 77.654 106.016Z" fill="#F4EFDF"/>
</svg>
