<svg width="39" height="38" viewBox="0 0 39 38" fill="none" xmlns="http://www.w3.org/2000/svg">
<path fill-rule="evenodd" clip-rule="evenodd" d="M6.45898 0C3.14528 0 0.458984 2.68629 0.458984 6V31.9995C0.458984 35.3132 3.14528 37.9995 6.45899 37.9995H32.4585C35.7722 37.9995 38.4585 35.3132 38.4585 31.9995V6C38.4585 2.68629 35.7722 0 32.4585 0H6.45898ZM19.4633 5.7826C15.8716 5.7826 15.422 5.79744 14.012 5.86422H14.0108C12.6044 5.931 11.6428 6.16102 10.8013 6.49616C9.91958 6.83803 9.1209 7.37359 8.46092 8.06551C7.78792 8.74483 7.26695 9.56694 6.93432 10.4746C6.60856 11.3402 6.38378 12.3296 6.32007 13.779C6.25636 15.2283 6.24073 15.6909 6.24073 19.3861C6.24073 23.08 6.25516 23.5425 6.32007 24.9956C6.38498 26.4426 6.60856 27.4319 6.93432 28.2976C7.26646 29.2051 7.78703 30.0273 8.45972 30.7066C9.12064 31.3982 9.92012 31.9334 10.8025 32.2747C11.644 32.6111 12.6056 32.8424 14.012 32.9079C15.422 32.9734 15.8716 32.9895 19.4633 32.9895C23.0551 32.9895 23.5046 32.9747 24.9158 32.9079C26.3222 32.8411 27.2839 32.6111 28.1253 32.2747C29.0064 31.9334 29.8058 31.3992 30.4669 30.7066C31.1392 30.0267 31.6593 29.2042 31.9911 28.2963C32.3181 27.4307 32.5429 26.4413 32.6066 24.9944C32.6703 23.5438 32.6859 23.0813 32.6859 19.3861C32.6859 15.6921 32.6715 15.2296 32.6066 13.7765C32.5417 12.3296 32.3181 11.3402 31.9911 10.4746C31.6594 9.56683 31.1401 8.74568 30.4669 8.06674C29.8058 7.3742 29.0064 6.83872 28.1253 6.49616C27.2839 6.16102 26.3222 5.92976 24.9134 5.86422C23.5046 5.79868 23.0551 5.7826 19.4633 5.7826ZM19.4633 8.2337C22.9937 8.2337 23.4121 8.2473 24.8064 8.31284C26.0962 8.37344 26.7958 8.5948 27.2622 8.78154C27.8365 8.99946 28.356 9.34679 28.7828 9.79809C29.2456 10.2742 29.5305 10.7281 29.7709 11.3625C29.9524 11.8423 30.1676 12.5621 30.2265 13.889C30.2902 15.3236 30.3034 15.7539 30.3034 19.3861C30.3034 23.0182 30.2902 23.4486 30.2265 24.8831C30.1676 26.2101 29.9524 26.9298 29.7709 27.4096C29.5594 27.9995 29.2216 28.535 28.7828 28.974C28.32 29.4502 27.8789 29.7432 27.2622 29.9906C26.7958 30.1773 26.0962 30.3987 24.8064 30.4593C23.4121 30.5248 22.9949 30.5384 19.4633 30.5384C15.9317 30.5384 15.5146 30.5248 14.1202 30.4593C12.8304 30.3987 12.1308 30.1773 11.6644 29.9906C11.091 29.7729 10.5705 29.4254 10.1438 28.974C9.70505 28.535 9.36727 27.9995 9.15571 27.4096C8.9742 26.9298 8.75903 26.2101 8.70013 24.8831C8.63642 23.4486 8.6232 23.0182 8.6232 19.3861C8.6232 15.7539 8.63642 15.3236 8.70013 13.889C8.75903 12.5621 8.9742 11.8423 9.15571 11.3625C9.36749 10.7717 9.7051 10.2372 10.1438 9.79809C10.6066 9.32197 11.0477 9.02888 11.6644 8.78154C12.1308 8.5948 12.8304 8.37344 14.1202 8.31284C15.5146 8.2473 15.9329 8.2337 19.4633 8.2337ZM20.7458 23.7339C19.7679 24.0381 18.7176 23.9836 17.7744 23.5796C17.172 23.3226 16.6324 22.9314 16.1946 22.4341C15.7568 21.9368 15.4315 21.3459 15.2424 20.7038C15.0532 20.0617 15.0047 19.3844 15.1005 18.7207C15.1963 18.057 15.4339 17.4234 15.7962 16.8655C16.1586 16.3077 16.6366 15.8394 17.196 15.4944C17.7554 15.1494 18.3821 14.9363 19.0312 14.8705C19.6802 14.8046 20.3354 14.8876 20.9495 15.1135C21.5636 15.3394 22.1213 15.7026 22.5826 16.1769C23.3063 16.9189 23.7571 17.8963 23.8581 18.9422C23.9591 19.9882 23.704 21.0377 23.1363 21.9117C22.5687 22.7856 21.7238 23.4297 20.7458 23.7339ZM16.8624 12.9261C16.0379 13.2775 15.2886 13.7925 14.6575 14.4418C13.3829 15.7531 12.6669 17.5316 12.6669 19.3861C12.6669 21.2405 13.3829 23.019 14.6575 24.3303C15.9321 25.6416 17.6608 26.3783 19.4633 26.3783C21.2658 26.3783 22.9945 25.6416 24.2691 24.3303C24.9002 23.681 25.4009 22.9102 25.7424 22.0619C26.084 21.2135 26.2598 20.3043 26.2598 19.3861C26.2598 18.4678 26.084 17.5586 25.7424 16.7103C25.4009 15.8619 24.9002 15.0911 24.2691 14.4418C23.638 13.7925 22.8888 13.2775 22.0642 12.9261C21.2396 12.5747 20.3558 12.3938 19.4633 12.3938C18.5708 12.3938 17.687 12.5747 16.8624 12.9261ZM28.1353 12.8984C28.0487 13.1009 27.9235 13.2834 27.7671 13.4352C27.4629 13.7303 27.0589 13.892 26.6409 13.8857C26.2228 13.8794 25.8235 13.7058 25.5279 13.4016C25.2322 13.0974 25.0634 12.6867 25.0573 12.2565C25.0512 11.8264 25.2083 11.4108 25.4952 11.0978C25.6427 10.9369 25.8202 10.8081 26.0169 10.719C26.2137 10.63 26.4259 10.5824 26.6409 10.5792C26.8558 10.5759 27.0693 10.6171 27.2685 10.7003C27.4677 10.7834 27.6487 10.9069 27.8007 11.0633C27.9527 11.2197 28.0727 11.4059 28.1535 11.6108C28.2344 11.8158 28.2744 12.0354 28.2713 12.2565C28.2681 12.4777 28.2219 12.696 28.1353 12.8984Z" fill="#EEEEEE"/>
</svg>
