<svg width="38" height="38" viewBox="0 0 38 38" fill="none" xmlns="http://www.w3.org/2000/svg">
<path fill-rule="evenodd" clip-rule="evenodd" d="M6 0.000305176C2.68629 0.000305176 0 2.6866 0 6.00031V31.9998C0 35.3135 2.68629 37.9998 6 37.9998H31.9995C35.3132 37.9998 37.9995 35.3135 37.9995 31.9998V6.00031C37.9995 2.6866 35.3132 0.000305176 31.9995 0.000305176H6ZM20.2134 15.4321H15.9543V30.5012H20.5408V23.2011C20.5408 20.7549 21.4416 19.1979 23.6076 19.1979C25.1688 19.1979 25.7836 20.6419 25.7836 23.2011V30.5012H30.3687V22.1775C30.3687 17.6839 29.295 15.2348 24.7642 15.2348C22.4009 15.2348 20.8282 16.3414 20.2134 17.5709V15.4321ZM12.6774 30.3054H8.09091V30.3039V15.2348H12.6774V30.3054ZM13.1281 11.4679C13.2724 11.1026 13.3423 10.7121 13.3337 10.3194C13.3167 9.54861 12.9986 8.81507 12.4474 8.27592C11.8962 7.73677 11.1559 7.43487 10.3849 7.43487C9.61387 7.43487 8.87351 7.73677 8.32236 8.27592C7.7712 8.81507 7.45307 9.54861 7.4361 10.3194C7.42745 10.7121 7.49733 11.1026 7.64163 11.4679C7.78594 11.8333 8.00176 12.1661 8.27644 12.4469C8.55111 12.7277 8.87911 12.9508 9.24117 13.1031C9.60324 13.2554 9.99208 13.3339 10.3849 13.3339C10.7777 13.3339 11.1665 13.2554 11.5286 13.1031C11.8906 12.9508 12.2186 12.7277 12.4933 12.4469C12.768 12.1661 12.9838 11.8333 13.1281 11.4679Z" fill="#EEEEEE"/>
</svg>
