<svg width="39" height="38" viewBox="0 0 39 38" fill="none" xmlns="http://www.w3.org/2000/svg">
<path fill-rule="evenodd" clip-rule="evenodd" d="M6.92041 0C3.6067 0 0.92041 2.68629 0.92041 6V31.9995C0.92041 35.3132 3.6067 37.9995 6.92041 37.9995H32.9199C36.2336 37.9995 38.9199 35.3132 38.9199 31.9995V6C38.9199 2.68629 36.2336 0 32.9199 0H6.92041ZM7.49692 29.1825C8.006 29.6916 8.69646 29.9776 9.41641 29.9776H31.133C31.8529 29.9776 32.5434 29.6916 33.0525 29.1825C33.5615 28.6734 33.8475 27.983 33.8475 27.263V10.9756C33.8475 10.2557 33.5615 9.56522 33.0525 9.05614C32.5434 8.54705 31.8529 8.26106 31.133 8.26106H9.41641C8.71646 8.26039 8.04331 8.53013 7.53749 9.01394C7.03168 9.49776 6.73229 10.1583 6.70184 10.8575V27.263C6.70184 27.983 6.98784 28.6734 7.49692 29.1825ZM9.41641 27.263V13.511L20.2747 20.7481L31.133 13.511V27.263H9.41641ZM20.2747 17.4906L10.5022 10.9756H30.0471L20.2747 17.4906Z" fill="#EEEEEE"/>
</svg>
