<svg id="Layer_1" data-name="Layer 1" xmlns="http://www.w3.org/2000/svg" viewBox="0 0 39 39"><defs><style>.cls-1{fill:#eee;}</style></defs><title>youtube</title><polygon class="cls-1" points="25.13 19.29 16.92 24.14 16.92 14.5 25.13 19.29"/><path class="cls-1" d="M6.16,0H32.84A6.16,6.16,0,0,1,39,6.15V32.84A6.16,6.16,0,0,1,32.84,39H6.16A6.16,6.16,0,0,1,0,32.84V6.15A6.15,6.15,0,0,1,6.16,0ZM20.59,7.63H18.2c-1.41,0-2.81.05-4.13.1a32.62,32.62,0,0,0-5.7.55,4.92,4.92,0,0,0-2.21,1.3,5.05,5.05,0,0,0-1.27,2.25A18,18,0,0,0,4.42,15c-.09.94-.13,1.94-.16,3,0,.32,0,.63,0,.91v.8c0,.26,0,.53,0,.83v.14c0,1,.07,2,.16,2.94a19.34,19.34,0,0,0,.47,3.2,5,5,0,0,0,3.48,3.54,31.64,31.64,0,0,0,5.7.55c1.32.05,2.72.08,4.13.1H22c1.4,0,2.81,0,4.11-.1a32.92,32.92,0,0,0,5.72-.55,5,5,0,0,0,3.48-3.54,19.34,19.34,0,0,0,.47-3.2c.07-.94.12-1.94.15-2.94,0-.33,0-.64,0-.92v-.8c0-.25,0-.53,0-.82V18c0-1-.08-2-.15-3a20.13,20.13,0,0,0-.47-3.19A5.17,5.17,0,0,0,34,9.59a5,5,0,0,0-2.2-1.3,31.93,31.93,0,0,0-5.72-.55c-1.3,0-2.71-.08-4.11-.1H20.59Z" transform="translate(0 0)"/></svg>