<svg width="39" height="38" viewBox="0 0 39 38" fill="none" xmlns="http://www.w3.org/2000/svg">
<path fill-rule="evenodd" clip-rule="evenodd" d="M6.68896 0C3.37526 0 0.688965 2.68629 0.688965 6V31.9995C0.688965 35.3132 3.37526 37.9995 6.68897 37.9995H32.6885C36.0022 37.9995 38.6885 35.3132 38.6885 31.9995V6C38.6885 2.68629 36.0022 0 32.6885 0H6.68896ZM35.669 18.4565C35.6725 18.5581 35.6725 18.6457 35.6725 18.7228V18.919C35.6725 18.9549 35.6717 18.9931 35.6709 19.0339C35.67 19.0808 35.669 19.1311 35.669 19.1854L35.6684 19.2367C35.6651 19.5075 35.6615 19.8085 35.6518 20.1281C35.6243 21.1059 35.5761 22.0801 35.5003 22.9983C35.397 24.2634 35.2489 25.3183 35.0389 26.1103C34.5981 27.7924 33.3034 29.1136 31.654 29.5622C30.683 29.825 28.7719 29.9898 26.0861 30.0949C24.8086 30.144 23.4416 30.1755 22.0746 30.193C21.6478 30.1993 21.2485 30.2027 20.8838 30.2059L20.7523 30.207H19.7399L19.6084 30.2059C19.2438 30.2027 18.8444 30.1993 18.4177 30.193C17.0507 30.1755 15.6836 30.144 14.4061 30.0949C11.7203 29.9933 9.80923 29.8286 8.83819 29.5622C7.18882 29.1136 5.8941 27.7889 5.45335 26.1103C5.24675 25.3183 5.09524 24.2634 4.99194 22.9983C4.91618 22.0801 4.86798 21.1059 4.84043 20.1281C4.83949 20.0818 4.83855 20.036 4.83763 19.9905C4.83173 19.702 4.82619 19.4306 4.82321 19.1854C4.81977 19.0838 4.81977 18.9961 4.81977 18.919V18.7228C4.81977 18.6869 4.82051 18.6487 4.82131 18.6079C4.82223 18.5611 4.82321 18.5108 4.82321 18.4565L4.82383 18.4052C4.82709 18.1344 4.83072 17.8334 4.84043 17.5137C4.86798 16.536 4.91618 15.5617 4.99194 14.6436C5.09524 13.3784 5.2433 12.3236 5.45335 11.5316C5.67084 10.7048 6.09802 9.95065 6.69209 9.3448C7.28616 8.73896 8.02625 8.30266 8.83819 8.07964C9.80923 7.8168 11.7203 7.65209 14.4061 7.54695C15.6836 7.49789 17.0507 7.46635 18.4177 7.44883C18.8446 7.44257 19.2442 7.43911 19.609 7.43595C19.6532 7.43556 19.6968 7.43519 19.7399 7.43481H20.7523C20.7954 7.43519 20.8391 7.43556 20.8832 7.43595C21.248 7.43911 21.6476 7.44257 22.0746 7.44883C23.4416 7.46635 24.8086 7.49789 26.0861 7.54695C28.7719 7.64858 30.6796 7.81329 31.654 8.07964C32.4657 8.30321 33.2055 8.73969 33.7995 9.34545C34.3935 9.95121 34.8209 10.705 35.0389 11.5316C35.2455 12.3236 35.397 13.3784 35.5003 14.6436C35.5761 15.5617 35.6243 16.536 35.6518 17.5137C35.6527 17.5597 35.6537 17.6053 35.6546 17.6504C35.6605 17.9393 35.666 18.211 35.669 18.4565ZM33.1898 19.1539C33.1932 19.0592 33.1932 18.9786 33.1932 18.905V18.7368C33.1932 18.7044 33.1925 18.669 33.1917 18.6309C33.1908 18.5867 33.1898 18.5388 33.1898 18.488L33.1891 18.4363C33.1859 18.1795 33.1823 17.8926 33.1726 17.5873C33.145 16.6551 33.1003 15.7229 33.028 14.8573C32.935 13.7289 32.8041 12.8037 32.6423 12.1834C32.4288 11.3739 31.8021 10.736 31.0101 10.5188C30.2905 10.3225 28.4655 10.1683 25.9897 10.0702C24.7328 10.0211 23.3865 9.98959 22.0401 9.97206L20.7385 9.96155H19.7537C19.3612 9.96155 18.9239 9.96506 18.4521 9.97206C17.1058 9.98959 15.7559 10.0211 14.5026 10.0702C12.0268 10.1648 10.2052 10.3225 9.48211 10.5188C8.69013 10.7325 8.06343 11.3739 7.84994 12.1834C7.68811 12.8037 7.55726 13.7289 7.46429 14.8573C7.39197 15.7229 7.34377 16.6551 7.31966 17.5873C7.31859 17.6381 7.31752 17.6882 7.31646 17.7377C7.31072 18.0064 7.30535 18.2572 7.30245 18.488C7.299 18.5826 7.299 18.6632 7.299 18.7368V18.905C7.299 18.9375 7.29974 18.9729 7.30053 19.0109C7.30145 19.0552 7.30245 19.103 7.30245 19.1539L7.3031 19.2052C7.30635 19.4621 7.30998 19.7491 7.31966 20.0545C7.34721 20.9867 7.39197 21.9189 7.46429 22.7845C7.55726 23.913 7.68811 24.8381 7.84994 25.4584C8.06343 26.268 8.69013 26.9058 9.48211 27.1231C10.2018 27.3193 12.0268 27.4735 14.5026 27.5717C15.7594 27.6207 17.1058 27.6523 18.4521 27.6698L19.7537 27.6803H20.7385C21.1311 27.6803 21.5684 27.6768 22.0401 27.6698C23.3865 27.6523 24.7363 27.6207 25.9897 27.5717C28.4655 27.477 30.287 27.3193 31.0101 27.1231C31.8021 26.9093 32.4288 26.268 32.6423 25.4584C32.8041 24.8381 32.935 23.913 33.028 22.7845C33.1003 21.9189 33.1485 20.9867 33.1726 20.0545C33.1736 20.0037 33.1747 19.9535 33.1758 19.904C33.1815 19.6353 33.1869 19.3846 33.1898 19.1539ZM25.1702 18.7859L17.1815 23.517V14.1249L25.1702 18.7859Z" fill="#EEEEEE"/>
</svg>
