<svg width="39" height="38" viewBox="0 0 39 38" fill="none" xmlns="http://www.w3.org/2000/svg">
<path fill-rule="evenodd" clip-rule="evenodd" d="M6.23071 0C2.917 0 0.230713 2.68629 0.230713 6V31.9995C0.230713 35.3132 2.91701 37.9995 6.23071 37.9995H14.7821V38H21.4614V37.9995H32.2302C35.5439 37.9995 38.2302 35.3132 38.2302 31.9995V6C38.2302 2.68629 35.5439 0 32.2302 0H6.23071ZM21.4614 37.9995V25.4628H28.0182L28.3165 19.4617H21.4614V15.0797C21.4614 13.4251 21.8263 12.4282 24.1034 12.4282C26.2074 12.4282 28.1355 12.446 28.1355 12.446L28.2844 6.84197C28.2844 6.84197 26.3939 6.60913 23.8372 6.60913C17.5226 6.60913 14.7821 10.308 14.7821 14.3359V19.4617H10.1428V25.4628H14.7821V37.9995H21.4614Z" fill="#EEEEEE"/>
</svg>
