<svg id="Layer_1" data-name="Layer 1" xmlns="http://www.w3.org/2000/svg" viewBox="0 0 39 39"><defs><style>.cls-1{fill:#eee;}</style></defs><title>mail</title><path class="cls-1" d="M33.79,10.87h0A2.83,2.83,0,0,0,33,9.29a2.78,2.78,0,0,0-2-.81H8.72A2.8,2.8,0,0,0,6,10.87H6a2.28,2.28,0,0,0,0,.26V28a2.78,2.78,0,0,0,2.79,2.78H31A2.77,2.77,0,0,0,33.79,28V11.26c0-.12,0-.24,0-.37ZM6.15,0H32.84A6.15,6.15,0,0,1,39,6.16V32.85A6.15,6.15,0,0,1,32.84,39H6.15A6.16,6.16,0,0,1,0,32.85V6.16A6.15,6.15,0,0,1,6.15,0Z" transform="translate(0 0)"/><path class="cls-1" d="M19.87,20.15l9.65-6.44h4.27L19.87,23q-7-4.62-13.94-9.22h4.32Z" transform="translate(0 0)"/><path class="cls-1" d="M10.25,13.75H5.93V11.14a2.28,2.28,0,0,1,0-.26Z" transform="translate(0 0)"/><path class="cls-1" d="M29.53,13.71l4.24-2.82c0,.13,0,.25,0,.37V13.7Z" transform="translate(0 0)"/></svg>