<svg id="Layer_1" data-name="Layer 1" xmlns="http://www.w3.org/2000/svg" viewBox="0 0 39 39"><defs><style>.cls-1{fill:#eee;}</style></defs><title>instagram</title><path class="cls-1" d="M25.7,11.39a1.55,1.55,0,0,1,.53-.39,1.62,1.62,0,0,1,.64-.15,1.42,1.42,0,0,1,.64.14,1.45,1.45,0,0,1,.55.37,1.52,1.52,0,0,1,.37.56,1.64,1.64,0,0,1,.11.66,1.79,1.79,0,0,1-.13.65,1.85,1.85,0,0,1-.38.56,1.58,1.58,0,0,1-1.16.46,1.67,1.67,0,0,1-1.14-.49,1.73,1.73,0,0,1-.48-1.18A1.7,1.7,0,0,1,25.7,11.39Z" transform="translate(0 0)"/><path class="cls-1" d="M32.84,39H6.16A6.16,6.16,0,0,1,0,32.84V6.15A6.16,6.16,0,0,1,6.16,0H32.84A6.16,6.16,0,0,1,39,6.15V32.84A6.16,6.16,0,0,1,32.84,39ZM19.51,5.94c-3.7,0-4.16,0-5.61.08a10,10,0,0,0-3.29.65,6.68,6.68,0,0,0-2.4,1.61,6.87,6.87,0,0,0-1.56,2.47A10.46,10.46,0,0,0,6,14.14c-.06,1.49-.08,2-.08,5.76s0,4.27.08,5.75A10.41,10.41,0,0,0,6.65,29a6.79,6.79,0,0,0,1.56,2.47,6.51,6.51,0,0,0,2.41,1.61,9.39,9.39,0,0,0,3.28.65c1.45.07,1.91.08,5.61.08s4.15,0,5.59-.08a9.51,9.51,0,0,0,3.3-.65,6.56,6.56,0,0,0,2.4-1.61A6.79,6.79,0,0,0,32.36,29,10.18,10.18,0,0,0,33,25.65c.07-1.48.09-2,.09-5.75s0-4.27-.09-5.76a10.49,10.49,0,0,0-.63-3.39A6.87,6.87,0,0,0,30.8,8.28a6.68,6.68,0,0,0-2.4-1.61A9.75,9.75,0,0,0,25.1,6C23.66,6,23.19,5.94,19.51,5.94Z" transform="translate(0 0)"/><path class="cls-1" d="M19.51,27.07A6.89,6.89,0,0,1,14.57,25a7.33,7.33,0,0,1,0-10.15,6.91,6.91,0,0,1,4.94-2.11,6.87,6.87,0,0,1,4.93,2.11,7.29,7.29,0,0,1,2,5.07A7.43,7.43,0,0,1,26,22.65,7.54,7.54,0,0,1,24.44,25,6.89,6.89,0,0,1,19.51,27.07Zm-3.36-4a4.46,4.46,0,0,0,1.62,1.17,4.39,4.39,0,0,0,3.05.16,4.58,4.58,0,0,0,2.46-1.87,4.8,4.8,0,0,0-.57-5.89A4.64,4.64,0,0,0,21,15.51a4.27,4.27,0,0,0-2-.24,4.2,4.2,0,0,0-1.88.63,4.41,4.41,0,0,0-1.44,1.41A4.92,4.92,0,0,0,15,19.22a4.81,4.81,0,0,0,.16,2A4.56,4.56,0,0,0,16.15,23Z" transform="translate(0 0)"/></svg>