<svg width="158" height="42" viewBox="0 0 158 42" fill="none" xmlns="http://www.w3.org/2000/svg">
<path fill-rule="evenodd" clip-rule="evenodd" d="M0 29.3871H1.0505C4.5303 29.3871 5.64646 28.4076 5.64646 24.6525V6.10599H2.69192V24.6525C2.69192 26.8729 2.52777 27.428 0.722221 27.428H0V29.3871ZM2.69192 3.59176H5.64646V0H2.69192V3.59176ZM15.4028 24.0974C11.0038 24.0974 8.96844 21.5179 8.96844 16.1956V13.616C8.96844 8.26105 10.971 5.71416 15.3699 5.71416C19.8018 5.71416 21.673 8.2284 21.673 13.8446V15.1833H12.0215V15.6405C12.0215 19.5914 12.6124 22.0077 15.4028 22.0077C17.4053 22.0077 18.6199 20.7996 18.6199 18.1874V18.0241H21.4103V18.1874C21.4103 22.1056 19.178 24.0974 15.4028 24.0974ZM12.0215 13.0936V13.2895H18.6199V13.0609C18.6199 9.6651 18.0619 7.77126 15.4028 7.77126C12.6452 7.77126 12.0215 9.82836 12.0215 13.0936ZM37.0101 23.673H40.2273L32.7096 9.79571L39.4722 0H36.3535L28.3434 11.7549V0H25.2576V23.673H28.3434V16.1303L30.8712 12.4406L37.0101 23.673ZM42.1048 23.673H45.0593V14.0732C45.0593 10.3508 46.2083 7.90187 48.5063 7.90187C50.6073 7.90187 50.9356 9.7304 50.9356 12.8977V23.673H53.8901V11.9181C53.8901 7.64065 52.8068 5.71416 49.5568 5.71416C47.2917 5.71416 45.7159 7.08556 45.0593 8.94675V6.10599H42.1048V23.673ZM63.2854 22.0077C66.0758 22.0077 66.5353 19.5588 66.5353 15.4772V14.3344C66.5353 10.2528 66.0758 7.77126 63.2854 7.77126C60.4949 7.77126 60.0025 10.2528 60.0025 14.3344V15.4772C60.0025 19.5588 60.4949 22.0077 63.2854 22.0077ZM63.2854 24.0974C58.9192 24.0974 56.9495 21.5832 56.9495 16.1629V13.6487C56.9495 8.2284 58.9192 5.71416 63.2854 5.71416C67.5859 5.71416 69.5884 8.2284 69.5884 13.6487V16.1629C69.5884 21.5832 67.5859 24.0974 63.2854 24.0974ZM74.1907 23.673H77.375L80.0669 9.07736L82.7588 23.673H85.9103L88.8321 6.10599H86.2386L84.1376 20.1792L81.4457 6.10599H78.6553L75.9962 20.1792L73.8952 6.10599H71.3018L74.1907 23.673ZM91.5631 23.673H94.5177V0H91.5631V23.673ZM104.274 24.0974C99.875 24.0974 97.8397 21.5179 97.8397 16.1956V13.616C97.8397 8.26105 99.8422 5.71416 104.241 5.71416C108.673 5.71416 110.544 8.2284 110.544 13.8446V15.1833H100.893V15.6405C100.893 19.5914 101.484 22.0077 104.274 22.0077C106.277 22.0077 107.491 20.7996 107.491 18.1874V18.0241H110.282V18.1874C110.282 22.1056 108.049 24.0974 104.274 24.0974ZM100.893 13.0936V13.2895H107.491V13.0609C107.491 9.6651 106.933 7.77126 104.274 7.77126C101.516 7.77126 100.893 9.82836 100.893 13.0936ZM122.927 8.91409V0H125.881V23.673H122.927V20.8975C122.336 22.6934 120.662 24.0974 118.462 24.0974C114.95 24.0974 113.177 21.4526 113.177 16.1956V13.616C113.177 8.359 114.95 5.71416 118.462 5.71416C120.662 5.71416 122.336 7.11822 122.927 8.91409ZM123.025 14.9221C123.025 10.4161 121.712 7.86922 119.316 7.86922C116.886 7.86922 116.23 10.1222 116.23 14.4323V15.3793C116.23 19.6894 116.886 21.9424 119.316 21.9424C121.712 21.9424 123.025 19.3955 123.025 14.9221ZM135.514 29.8116C131.509 29.8116 129.638 27.7872 129.638 24.6525V24.5219H132.494V24.6525C132.494 26.5137 133.38 27.7219 135.547 27.7219C137.943 27.7219 138.863 26.6117 138.863 23.3138V20.0159C138.272 21.8444 136.794 23.2485 134.595 23.2485C131.115 23.2485 129.047 20.5383 129.047 15.4119V13.3222C129.047 8.06513 131.115 5.71416 134.595 5.71416C136.794 5.71416 138.272 7.15087 138.863 8.94675V6.10599H141.817V22.7587C141.817 27.3627 140.11 29.8116 135.514 29.8116ZM135.408 21.0934C137.936 21.0934 139.15 18.6772 139.15 14.5956C139.15 10.2855 137.936 7.86922 135.408 7.86922C132.946 7.86922 132.256 9.89367 132.256 14.0405V14.5303C132.256 18.6445 132.946 21.0934 135.408 21.0934ZM151.73 24.0974C147.331 24.0974 145.295 21.5179 145.295 16.1956V13.616C145.295 8.26105 147.298 5.71416 151.697 5.71416C156.129 5.71416 158 8.2284 158 13.8446V15.1833H148.348V15.6405C148.348 19.5914 148.939 22.0077 151.73 22.0077C153.732 22.0077 154.947 20.7996 154.947 18.1874V18.0241H157.737V18.1874C157.737 22.1056 155.505 24.0974 151.73 24.0974ZM148.348 13.0936V13.2895H154.947V13.0609C154.947 9.6651 154.389 7.77126 151.73 7.77126C148.972 7.77126 148.348 9.82836 148.348 13.0936Z" fill="white"/>
<path fill-rule="evenodd" clip-rule="evenodd" d="M27 39.3534V29.147H28.1464L32.0387 38.1427V29.147H32.902V39.3534H31.7556L27.8634 30.3577V39.3534H27ZM36.6379 39.5364C35.2226 39.5364 34.798 38.6213 34.798 36.7912V31.7796H35.6613V36.5519C35.6613 38.016 35.8595 38.8466 36.8502 38.8466C37.8551 38.8466 38.5345 37.833 38.5345 35.9747V31.7796H39.3979V39.3534H38.5628V38.0301C38.3222 38.8325 37.6428 39.5364 36.6379 39.5364ZM41.2797 39.3534V31.7796H42.143V33.3281C42.3553 32.4975 42.9073 31.7796 43.9547 31.7796H44.2378V32.6242H43.8273C42.7516 32.6242 42.143 33.3422 42.143 35.2427V39.3534H41.2797ZM46.8272 39.3534C45.5534 39.3534 45.2704 38.917 45.2704 37.6218V32.4271H44.223V31.7796H45.2704V29.9354H46.1337V31.7796H47.45V32.4271H46.1337V37.4951C46.1337 38.5228 46.247 38.7058 47.1103 38.7058H47.45V39.3534H46.8272ZM50.3226 39.5364C48.9072 39.5364 48.4826 38.6213 48.4826 36.7912V31.7796H49.346V36.5519C49.346 38.016 49.5441 38.8466 50.5349 38.8466C51.5398 38.8466 52.2191 37.833 52.2191 35.9747V31.7796H53.0825V39.3534H52.2474V38.0301C52.0068 38.8325 51.3275 39.5364 50.3226 39.5364ZM54.9643 39.3534V31.7796H55.8277V33.3281C56.04 32.4975 56.5919 31.7796 57.6393 31.7796H57.9224V32.6242H57.5119C56.4363 32.6242 55.8277 33.3422 55.8277 35.2427V39.3534H54.9643ZM58.7993 39.3534V31.7796H59.6626V39.3534H58.7993ZM58.7993 30.583V29.147H59.6626V30.583H58.7993ZM61.5444 39.3534V31.7796H62.4078V33.1451C62.6626 32.3427 63.3561 31.6388 64.3752 31.6388C65.7905 31.6388 66.2293 32.5116 66.2293 34.3558V39.3534H65.3659V34.6233C65.3659 33.131 65.1536 32.3286 64.1345 32.3286C63.1155 32.3286 62.4078 33.3422 62.4078 35.2004V39.3534H61.5444ZM70.2199 42C68.4366 42 67.8988 40.9441 67.8988 39.832V39.7616H68.748V39.832C68.748 40.7189 69.116 41.3383 70.2199 41.3383C71.3805 41.3383 71.8335 40.7471 71.8335 39.3252V37.6922C71.5928 38.5509 70.8852 39.1985 69.8944 39.1985C68.4366 39.1985 67.6157 37.9738 67.6157 35.7636V34.8626C67.6157 32.6242 68.4366 31.6388 69.8944 31.6388C70.8852 31.6388 71.5928 32.3004 71.8335 33.1451V31.7796H72.711V39.1281C72.711 40.9019 72.0882 42 70.2199 42ZM70.0501 38.5228C71.1541 38.5228 71.8759 37.5937 71.8759 35.4398C71.8759 33.2436 71.1541 32.3145 70.0501 32.3145C68.8895 32.3145 68.5074 33.2436 68.5074 35.2145V35.3835C68.5074 37.3543 68.8895 38.5228 70.0501 38.5228ZM77.5078 39.3534V29.147H82.504V29.9072H78.4136V33.6801H82.1643V34.4403H78.4136V38.5932H82.504V39.3534H77.5078ZM82.8713 39.3534L84.9802 35.4538L83.027 31.7796H83.9329L85.4331 34.6092L86.9617 31.7796H87.7826L85.8436 35.3835L87.9666 39.3534H87.0608L85.3907 36.2281L83.7064 39.3534H82.8713ZM91.1647 39.5364C89.3955 39.5364 88.6312 38.4102 88.6312 36.1014V35.0737C88.6312 32.7791 89.3955 31.6388 91.1647 31.6388C92.5659 31.6388 93.4859 32.5538 93.4859 34.1728V34.2432H92.6508V34.1728C92.6508 33.0184 92.1838 32.3004 91.1647 32.3004C89.7777 32.3004 89.5229 33.4689 89.5229 35.2849V35.9043C89.5229 37.7063 89.7777 38.8606 91.1647 38.8606C92.1838 38.8606 92.6508 38.1708 92.6508 37.0024V36.932H93.4859V37.0024C93.4859 38.6213 92.5659 39.5364 91.1647 39.5364ZM97.3916 39.5364C95.6083 39.5364 94.7732 38.3961 94.7732 36.1155V35.0597C94.7732 32.7791 95.5658 31.6388 97.335 31.6388C99.0901 31.6388 99.826 32.7228 99.826 35.0034V35.5946H95.6649V35.9043C95.6649 37.7063 96.0187 38.8606 97.3916 38.8606C98.4107 38.8606 98.9485 38.199 98.9485 37.0587V36.9883H99.7836V37.0587C99.7836 38.6776 98.8778 39.5364 97.3916 39.5364ZM95.6649 34.933V34.9752H98.9344V34.9048C98.9344 33.2718 98.6655 32.3004 97.3492 32.3004C95.9763 32.3004 95.6649 33.3844 95.6649 34.933ZM101.297 39.3534V29.147H102.161V39.3534H101.297ZM104.043 39.3534V29.147H104.906V39.3534H104.043ZM109.066 39.5364C107.283 39.5364 106.448 38.3961 106.448 36.1155V35.0597C106.448 32.7791 107.241 31.6388 109.01 31.6388C110.765 31.6388 111.501 32.7228 111.501 35.0034V35.5946H107.34V35.9043C107.34 37.7063 107.694 38.8606 109.066 38.8606C110.086 38.8606 110.623 38.199 110.623 37.0587V36.9883H111.458V37.0587C111.458 38.6776 110.553 39.5364 109.066 39.5364ZM107.34 34.933V34.9752H110.609V34.9048C110.609 33.2718 110.34 32.3004 109.024 32.3004C107.651 32.3004 107.34 33.3844 107.34 34.933ZM112.972 39.3534V31.7796H113.836V33.1451C114.09 32.3427 114.784 31.6388 115.803 31.6388C117.218 31.6388 117.657 32.5116 117.657 34.3558V39.3534H116.794V34.6233C116.794 33.131 116.581 32.3286 115.562 32.3286C114.543 32.3286 113.836 33.3422 113.836 35.2004V39.3534H112.972ZM121.577 39.5364C119.808 39.5364 119.043 38.4102 119.043 36.1014V35.0737C119.043 32.7791 119.808 31.6388 121.577 31.6388C122.978 31.6388 123.898 32.5538 123.898 34.1728V34.2432H123.063V34.1728C123.063 33.0184 122.596 32.3004 121.577 32.3004C120.19 32.3004 119.935 33.4689 119.935 35.2849V35.9043C119.935 37.7063 120.19 38.8606 121.577 38.8606C122.596 38.8606 123.063 38.1708 123.063 37.0024V36.932H123.898V37.0024C123.898 38.6213 122.978 39.5364 121.577 39.5364ZM127.804 39.5364C126.021 39.5364 125.185 38.3961 125.185 36.1155V35.0597C125.185 32.7791 125.978 31.6388 127.747 31.6388C129.502 31.6388 130.238 32.7228 130.238 35.0034V35.5946H126.077V35.9043C126.077 37.7063 126.431 38.8606 127.804 38.8606C128.823 38.8606 129.361 38.199 129.361 37.0587V36.9883H130.196V37.0587C130.196 38.6776 129.29 39.5364 127.804 39.5364ZM126.077 34.933V34.9752H129.347V34.9048C129.347 33.2718 129.078 32.3004 127.761 32.3004C126.389 32.3004 126.077 33.3844 126.077 34.933Z" fill="white"/>
</svg>
